<?xml version="1.0" encoding="utf-8"?>
<!-- Generator: Adobe Illustrator 23.0.0, SVG Export Plug-In . SVG Version: 6.00 Build 0)  -->
<svg version="1.1" id="Layer_1" xmlns="http://www.w3.org/2000/svg" xmlns:xlink="http://www.w3.org/1999/xlink" x="0px" y="0px"
	 viewBox="0 0 619.8 322.1" style="enable-background:new 0 0 619.8 322.1;" xml:space="preserve">
<style type="text/css">
	.st0{fill:#253652;}
	.st1{fill:#FEFEFE;}
	.st2{fill:#FDFDFD;}
</style>
<g>
	<path class="st0" d="M408,18.4c-0.1,1.6-0.4,3.3-0.4,4.9c0,44.5,0,88.9-0.1,133.4c0,3.9,1,5,4.9,4.9c9.3-0.3,18.6,0.1,28-0.1
		c3.3,0,4.2,0.5,2.5,3.8c-11.7,23.5-23.4,47-35,70.6c-12.2,24.6-24.3,49.2-36.5,73.8c-0.6,1.2-1,2.5-1.5,3.7c-0.3,0-0.7,0-1,0
		c-24.9-50.4-49.7-100.7-75-151.9c11.4,0,22.1-0.3,32.8,0.1c5.1,0.2,6.5-1.1,6.5-6.4c-0.3-45.6-0.2-91.3-0.3-136.9c9,0,18,0,27,0
		c1.7,1.9,1.5,4.3,1.5,6.7c0,51.8,0,103.6,0,155.4c0,7.5-0.9,8.3-8.3,8.4c-2.7,0-5.3,0-8,0c-5.9,0.1-6.4,0.7-3.8,5.9
		c4.6,9.4,9.4,18.8,14.1,28.2c3.9,7.8,7.8,15.5,11.6,23.3c0.8,1.7,2.2,3.4,1.8,5.6c1.3-0.8,1.4-2.3,2-3.4
		c9.1-17.8,17.4-36,26.4-53.8c2.6-5.1,2.2-5.6-3.4-5.7c-3,0-6,0-9-0.1c-3.5-0.1-5.1-1.9-5.3-5.3c-0.1-1.5-0.1-3-0.1-4.5
		c0-50.8,0-101.6,0-152.4c0-2.8-0.6-5.7,1.5-8.2C390,18.4,399,18.4,408,18.4z"/>
	<path class="st1" d="M381,18.4c0.1,2,0.3,4,0.3,6c0,52.6,0.1,105.2-0.1,157.9c0,4.4,1,5.8,5.5,5.4c4.9-0.4,9.9-0.1,15.7-0.1
		c-11.1,22.5-21.9,44.3-33,67c-11.1-22.4-21.8-44.2-33.1-66.8c6.8,0,12.7-0.3,18.6,0.1c4.1,0.3,4.9-1.2,4.9-5
		c-0.1-52.8-0.1-105.6-0.1-158.4c0-2,0.2-4,0.3-6C367,18.4,374,18.4,381,18.4z"/>
	<path d="M6,136.4c2.2-3.7,1.8-7.9,2.4-11.9c0.4-2.7,1-3.8,4-2.8c3.5,1.2,7.2,1.3,10.9,1.2c9.7-0.2,15.1-4.7,16.7-14.4
		c0.6-3.8,0.9-7.6,0.9-11.4c0.1-22.2,0.2-44.3-0.1-66.5c-0.1-4.7,1.4-5.5,5.5-5.2c5.8,0.3,11.7,0.2,17.5,0c2.3,0,3.6,0.2,3.5,3.1
		c-0.2,26.3-0.1,52.6-0.4,79c-0.1,5.5-1.2,10.9-3.3,16.1c-6,14.9-18.1,20.5-33,21.6C22.3,145.8,14,145,6,142.4
		C6,140.4,6,138.4,6,136.4z"/>
	<path d="M606,186.4c-1.6,0.1-3.3,0.4-4.9,0.4c-47,0-94,0-141,0c-5.4,0-5.4,0-3-4.8c2.8-5.7,5.8-11.3,8.5-17c1-2,2.1-3,4.5-3
		c45,0.1,90,0.1,135,0.1c0.3,0,0.6,0.2,1,0.2C606,170.4,606,178.4,606,186.4z"/>
	<path d="M291.1,186.8c-2.4,0-4,0-5.6,0c-91,0-181.9,0-272.9,0.1c-4.1,0-5-1.3-4.8-5c0.3-5.6,0.2-11.3,0-17c0-2.2,0.6-3.1,2.8-2.8
		c0.7,0.1,1.3,0,2,0c87.1,0,174.2,0,261.4-0.1c4.1,0,6.2,1.3,7.7,5C284.5,173.4,287.7,179.6,291.1,186.8z"/>
	<path d="M134.4,135c-10,9.5-21.3,12.6-33.9,8.8c-10.5-3.2-16.8-10.6-18.1-21.6c-1.4-11.5,2.8-21,12.7-27.4c9.8-6.4,21-7.9,32.4-8.5
		c1.5-0.1,3.7,0.9,4.5-0.9c0.8-1.9,0-3.9-1.1-5.7c-2.3-3.4-5.7-4.9-9.7-5.4c-8.7-1.1-16.9,0.8-24.7,4.5c-2.6,1.3-3.6,1-4.3-1.7
		c-0.8-3.2-1.7-6.4-2.9-9.5c-1.2-3.2-0.7-5,2.9-6.3c11-4.3,22.4-6.4,34.2-5.6c20.9,1.5,32.4,13.8,32.7,35.3
		c0.2,12.7,0.1,25.3,0.1,38c0,1.8,0,3.7,0.2,5.5c0.6,8.9,0.7,8.9-8.1,8.9c-2.2,0-4.3,0-6.5,0C136.3,143.4,136.3,143.4,134.4,135z"/>
	<path d="M291.1,135c-9.7,9.4-21,12.5-33.4,9c-10.3-2.9-16.9-10-18.5-20.8c-1.6-10.9,1.5-20.5,10.8-27.3c9.7-7.1,21-8.7,32.6-9.6
		c2.1-0.2,5.4,1.4,6.1-1.3c0.8-3.1-1-6.2-3.9-8.1c-6.1-3.9-12.8-3.2-19.4-2.1c-4.6,0.8-9.1,2.1-13.2,4.4c-1.9,1.1-2.9,1-3.3-1.4
		c-0.4-2.3-1.2-4.5-1.9-6.7c-2.3-8.5-2.3-8.5,6.3-11.4c11-3.7,22.3-5.1,33.9-3.4c16.7,2.5,26.8,13.2,27.9,30.2
		c1.1,16.6-0.3,33.3,0.9,49.9c0.5,7,0.4,7-6.6,7c-2.7,0-5.3,0-8,0C293.2,143.4,293.2,143.4,291.1,135z"/>
	<path d="M203.2,73.5c1.5-2.6,2.4-4.5,3.5-6.2c5.2-7.8,12.3-11.9,21.8-11.6c2.5,0.1,4,0.6,3.9,3.7c-0.2,6.3-0.2,12.7,0,19
		c0.1,2.5-0.6,2.9-3.2,2.6c-14.6-1.7-22.4,5.4-22.5,20c-0.1,12.8-0.1,25.6,0.1,38.5c0.1,3.4-0.9,4.3-4.2,4.1
		c-5.8-0.3-11.7-0.3-17.5,0c-4,0.2-5.3-0.8-5.3-5.1c0.2-22.3,0.1-44.6,0-66.9c0-3.5-0.2-7-0.5-10.5c-0.2-2.6,0.7-3.5,3.3-3.4
		c5.3,0.2,10.7,0.2,16,0c3-0.1,3.6,1,3.7,3.8C202.3,65,202.8,68.8,203.2,73.5z"/>
	<path d="M479.4,135c-8.8,8.7-19,11.9-30.5,9.7c-11.6-2.1-19.3-9.9-21.3-20.9c-2.1-11.4,2.8-22.9,12.4-29c9.9-6.2,21.1-7.9,32.5-8.4
		c5.2-0.2,6.2-2.1,3.4-6.6c-2.3-3.7-6-5-10.2-5.5c-8.7-1-16.9,1.1-24.7,4.7c-2.1,1-3.1,1.2-3.7-1.3c-1-4-2.2-8-3.4-12
		c-0.5-1.7-0.4-2.8,1.4-3.5c15.8-6.6,32-9.5,48.5-3.7c15.2,5.3,19.6,18,20,32.5c0.4,12.8,0.1,25.6,0.2,38.5c0,1.8,0,3.7,0.2,5.5
		c0.6,8.4,0.6,8.4-7.6,8.4c-2.3,0-4.7,0-7,0C481.3,143.4,481.3,143.4,479.4,135z"/>
	<path d="M558.6,115.2c-4.4,8.5-8.6,16.4-12.5,24.4c-1.3,2.7-2.8,4-6,3.9c-8.1-0.3-16.3-0.1-25.3-0.1c5.6-8.5,11-16.6,16.4-24.7
		c3.2-4.8,6.2-9.9,9.8-14.4c2.8-3.5,2-6-0.2-9.1c-7.7-11.2-15.3-22.6-22.9-33.9c-0.6-0.9-1.6-1.7-1.4-3.6c9,0,18.1,0,27.1,0
		c2.2,0,2.7,1.7,3.5,3.1c4.6,7.9,9.1,15.8,13.8,24c4.3-8,8.5-15.7,12.5-23.5c1.3-2.5,2.7-3.7,5.7-3.6c6.8,0.3,13.6,0,20.5,0.1
		c1.2,0,3-0.8,3.6,0.7c0.5,1.3-1,2.3-1.7,3.4C593.6,73,585.9,84.2,578,95.3c-1.7,2.4-1.7,4-0.1,6.5c8.8,13.5,17.3,27.1,26.5,41.6
		c-10.1,0-19.5,0-28.9,0c-2,0-2.2-1.7-2.9-2.9C568,132.2,563.5,123.9,558.6,115.2z"/>
	<path class="st2" d="M133.1,109.9c0,9.2-3.7,14.5-11.4,16.3c-5.3,1.2-10.9-1.3-12.5-5.7c-2-5.3,0-11.1,4.9-13.8
		c5.2-2.9,11-3.5,16.9-3.7c2-0.1,2.2,0.9,2.2,2.4C133,106.9,133.1,108.4,133.1,109.9z"/>
	<path class="st2" d="M289.9,109.8c0,8.9-3.1,13.6-10.5,16c-6,1.9-11.6-0.3-13.7-5.6c-2.1-5.2,0.2-11,5.6-13.8
		c5.1-2.7,10.8-3.1,16.4-3.4c1.9-0.1,2.3,0.7,2.2,2.3C289.8,106.8,289.9,108.3,289.9,109.8z"/>
	<path class="st2" d="M478.1,109.9c-0.1,9-3.6,14.2-11,16.2c-5.4,1.4-10.9-0.8-12.8-5.1c-2.3-5.4-0.4-11.4,4.7-14.2
		c5.2-2.9,11.1-3.4,16.9-3.8c1.5-0.1,2.2,0.4,2.1,1.9C478.1,106.5,478.1,108.2,478.1,109.9z"/>
</g>
</svg>
