<svg viewBox="0 0 512 512" xmlns="http://www.w3.org/2000/svg"><path d="m488.898438 256-4.796876 7.839844c-.800781 1.308594-20.113281 32.480468-57.640624 63.71875-49.902344 41.542968-108.691407 63.5-170.011719 63.5h-.480469c-61.140625-.109375-119.890625-22.058594-169.949219-63.46875-37.738281-31.21875-57.269531-62.371094-58.078125-63.679688l-4.902344-7.910156 4.902344-7.910156c.808594-1.308594 20.339844-32.460938 58.078125-63.679688 50.058594-41.410156 108.808594-63.359375 169.949219-63.46875h.480469c61.320312 0 120.109375 21.957032 170.011719 63.5 37.527343 31.238282 56.839843 62.410156 57.640624 63.71875zm0 0" fill="#fff4ca"/><path d="m30 91.5h-30v-91.5h92.625v30h-62.625zm0 0" fill="#7985eb"/><path d="m512 91.5h-30v-61.5h-62.625v-30h92.625zm0 0" fill="#4b5be6"/><path d="m92.625 512h-92.625v-91.5h30v61.5h62.625zm0 0" fill="#7985eb"/><path d="m512 512h-92.625v-30h62.625v-61.5h30zm0 0" fill="#4b5be6"/><path d="m488.898438 256-4.796876 7.839844c-.800781 1.308594-20.113281 32.480468-57.640624 63.71875-49.902344 41.542968-108.691407 63.5-170.011719 63.5h-.480469v-270.117188h.480469c61.320312 0 120.109375 21.957032 170.011719 63.5 37.527343 31.238282 56.839843 62.410156 57.640624 63.71875zm0 0" fill="#ffe1ba"/><path d="m355.5 256c0 54.859375-44.640625 99.5-99.5 99.5h-.03125c-54.847656-.019531-99.46875-44.648438-99.46875-99.5s44.621094-99.480469 99.46875-99.5h.03125c54.859375 0 99.5 44.640625 99.5 99.5zm0 0" fill="#ff7a53"/><path d="m355.5 256c0 54.859375-44.640625 99.5-99.5 99.5h-.03125v-199h.03125c54.859375 0 99.5 44.640625 99.5 99.5zm0 0" fill="#ff4f19"/></svg>