<svg height="512pt" viewBox="0 0 512 512" width="512pt" xmlns="http://www.w3.org/2000/svg" xmlns:xlink="http://www.w3.org/1999/xlink"><linearGradient id="a" gradientUnits="userSpaceOnUse" x1="256" x2="256" y1="0" y2="512"><stop offset="0" stop-color="#2af598"/><stop offset="1" stop-color="#009efd"/></linearGradient><path d="m452 0h-392c-33.085938 0-60 26.914062-60 60v392c0 33.085938 26.914062 60 60 60h392c33.085938 0 60-26.914062 60-60v-392c0-33.085938-26.914062-60-60-60zm20 452c0 11.027344-8.972656 20-20 20h-392c-11.027344 0-20-8.972656-20-20v-208h432zm-432-248v-144c0-11.027344 8.972656-20 20-20h392c11.027344 0 20 8.972656 20 20v144zm363.476562-124.144531 28.253907 28.3125-66.550781 66.402343-67.226563-66.320312 28.09375-28.476562 38.972656 38.449218zm15.523438 254.144531h-326v-40h326zm0 90h-326v-40h326zm0 0" fill="url(#a)"/></svg>