<?xml version="1.0" encoding="utf-8"?>
<!-- Generator: Adobe Illustrator 23.0.0, SVG Export Plug-In . SVG Version: 6.00 Build 0)  -->
<svg version="1.1" id="Layer_1" xmlns="http://www.w3.org/2000/svg" xmlns:xlink="http://www.w3.org/1999/xlink" x="0px" y="0px"
	 viewBox="0 0 158.1 178.4" style="enable-background:new 0 0 158.1 178.4;" xml:space="preserve">
<style type="text/css">
	.st0{fill:#FEFEFE;}
	.st1{fill:#41A738;}
	.st2{fill:#4EC142;}
	.st3{fill:#23201F;}
	.st4{fill:#FCFDFC;}
	.st5{fill:#43AA3A;}
</style>
<g>
	<path class="st0" d="M134.1,46.1c-6.5,16.2-13.5,32.2-21,48c-8.6,4.4-16.7,1.7-24.7-2c-3.3-1.5-5.8-4.3-8.7-6.5
		c-2.5-0.5-3.4,1.6-4.9,2.8c-8.1,6.5-17.2,8.9-27.3,7.1c-1.3-0.2-2.6-0.5-3.5-1.6c-7.1-14-12.6-28.8-19-43.1c-0.5-1-0.9-2.1-1.3-3.2
		c-0.3-6.7,4.9-10.1,9.3-13.2c13.6-9.5,30.1-8.6,42.8,2.1c2.7,2.3,4.3,1.7,6.7-0.3c14.7-12.4,36.3-10.7,48.8,3.8
		C132.7,41.8,134.3,43.5,134.1,46.1z"/>
	<path class="st1" d="M134.1,46.1c-12.7-19.5-35.7-22.6-53-6.9c-2.8,2.5-3.5,0.6-5-0.8c-15.2-13.7-38.4-11.7-50.2,4.4
		c-1.1,1.5-2.2,2.9-2.4,4.8c-1.8-4.5-4.5-8.5-4.9-13.5c3.4-6.5,9.7-9.5,16-11.8c14.5-5.4,28-3.1,40,7c0.6,0.5,1.2,1.2,2.4,1.3
		c1.7-3.3-0.3-7.1,1-10.5c13.6-3.5,27.2-7,40.8-10.5c6.9-1.8,13.7-3.7,21.5-5.8c-1.5,4.7-2.8,8.6-4.1,12.8c3.8,0.8,7.1-1.8,11.6-1.4
		C143.1,25.8,138.6,35.9,134.1,46.1z"/>
	<path class="st1" d="M79.7,84c9.3,9.2,20.5,12.4,33.3,10c-9,25.1-20.5,49.2-30.7,73.8c-0.8,2-1.6,4-2.5,6c-0.5,1.1-1.2,1.7-1.9,0.1
		c-1.4-15-0.4-30-0.7-44.9c0-1.8,0.2-3.7,0.7-5.4c2.6-7.9,6.1-15.4,9-23.2c1.6-4.4,1.3-4.6-3.3-5c-4.7-0.4-9.6,1.5-14.1-1.4
		C74.4,92,78,88.9,79.7,84z"/>
	<path class="st2" d="M79.8,122.8c-1,2-0.9,4.2-0.9,6.3c0,13.2,0,26.3,0,39.5c0,1.8,0.6,3.7-0.8,5.2c-11.4-26.7-22.8-53.3-34.2-80
		c12.9,2.3,24.6,0.1,33.9-9.9c0.6-0.7,1.3-1,1.9,0.1c0.5,7-3.4,9.8-9.8,10c-1.5,2,0,4.2-0.3,6.3c0.1,6.5,2.2,12.8,3,19.2
		c0.5,3.7,2.5,1,3.9,0.9C78.3,120.3,78.8,121.9,79.8,122.8z"/>
	<path class="st2" d="M77.9,20.1c1.9,3.8,1.3,7.9,0.8,11.8c-0.6,4-2.6,0.7-3.5-0.2c-5.4-5.2-11.6-8.5-19.1-9.9
		c-13.3-2.6-24.5,1.3-34.4,9.9c-1,0.9-2.1,1.7-3.1,2.5C15.8,28,13,21.8,10,15.4c4.3-0.6,7.6,1.7,11.7,1.5c-1.4-4.2-2.7-8.2-4.3-13.1
		C38.1,9.3,58,14.7,77.9,20.1z"/>
	<path class="st3" d="M53.1,50.7c6.6,0.1,11.9,5.5,11.6,11.8c-0.2,6.1-5.7,11.1-11.9,11.1C46.2,73.4,41,68,41.2,61.7
		C41.5,55.4,46.7,50.6,53.1,50.7z"/>
	<path class="st3" d="M104.6,50.7c6.4-0.1,11.6,4.7,11.9,11c0.3,6.4-5,11.7-11.5,11.9c-6.4,0.1-12-5.3-12-11.5
		C93.1,55.8,98.3,50.8,104.6,50.7z"/>
	<path class="st4" d="M68.8,100c0.9-1.9-4.4-4.8,1-5.9c5.3,0.1,10.6,0.5,15.8,0.2c4.9-0.3,5,1.2,3.3,5.1c-3.3,7.7-6.1,15.6-9.2,23.4
		c-1.9,0.7-1.7-1.4-2.7-2C72.8,114.5,70.5,107.4,68.8,100z"/>
	<path class="st5" d="M68.8,100c3.2,6.8,6,13.7,8.3,20.9c-1.9,0.6-2.6,2.5-4.8,4.3C71.4,116.3,68,108.5,68.8,100z"/>
</g>
</svg>
