<svg id="Capa_1" enable-background="new 0 0 512 512" height="512" viewBox="0 0 512 512" width="512" xmlns="http://www.w3.org/2000/svg" xmlns:xlink="http://www.w3.org/1999/xlink"><linearGradient id="SVGID_1_" gradientUnits="userSpaceOnUse" x1="15.63" x2="496.37" y1="256" y2="256"><stop offset=".0485" stop-color="#d2deff"/><stop offset=".9993" stop-color="#dcfdee"/></linearGradient><g><g><g><path d="m20.722 179.563c26.255 85.007 107.775 89.005 182.131 93.553 244.867 14.978-63.002 218.186 146.697 238.304 77.136 7.4 157.788-56.956 145.59-140.291-11.107-75.879-121.152-121.073-121.207-191.979-.043-55.945 103.86-96.409 36.272-156.553-60.249-53.612-442.871-15.888-389.483 156.966z" fill="url(#SVGID_1_)"/></g><path d="m471.54 232.937c-1.326 0-2.598-.526-3.536-1.465l-11.311-11.311c-.938-.938-1.464-2.209-1.464-3.535s.527-2.598 1.465-3.536l11.311-11.31c1.953-1.951 5.118-1.951 7.071.001l11.31 11.31c.938.938 1.464 2.209 1.464 3.535s-.527 2.598-1.464 3.535l-11.31 11.311c-.938.938-2.21 1.465-3.536 1.465zm-4.239-16.311 4.239 4.239 4.239-4.239-4.239-4.238z" fill="#ff7eb8"/><g><path d="m443.82 195.322c17.183 0 31.113-13.93 31.113-31.113 0-17.183-13.93-31.113-31.113-31.113h-.894v-16.398c0-5.523-4.477-10-10-10h-344.479c-5.523 0-10 4.477-10 10v117.712h-27.097c-6.01 0-10.89 4.87-10.89 10.88v197.13c0 6.01 4.88 10.88 10.89 10.88h147.95c6.01 0 10.89-4.87 10.89-10.88v-7.011h136.83c2.761 0 5-2.238 5-5s-2.239-5-5-5h-38.833v-79.648h29.933c8.057 9.753 20.242 15.968 33.88 15.968h4.81v80.691c0 6.01 4.88 10.88 10.89 10.88h72.95c6.01 0 10.89-4.87 10.89-10.88v-137.13c0-6.01-4.88-10.88-10.89-10.88h-17.724v-99.088zm-207.303 150.439h45.34v25.088c0 12.52-10.15 22.67-22.67 22.67s-22.67-10.15-22.67-22.67z" fill="#2626bc" opacity=".1"/><g><g><path d="m308.187 301.979v104.43h-98v-104.43h26.33v44.87c0 12.52 10.15 22.67 22.67 22.67s22.67-10.15 22.67-22.67v-44.87z" fill="#9fb0fe"/><path d="m281.857 301.979h26.33v35.75h-26.33z" fill="#8399fe"/><path d="m210.187 301.979h26.33v35.75h-26.33z" fill="#8399fe"/><path d="m432.926 321.761h-344.479c-5.523 0-10-4.477-10-10v-219.064c0-5.523 4.477-10 10-10h344.479c5.523 0 10 4.477 10 10v219.064c0 5.523-4.477 10-10 10z" fill="#6583fe"/><path d="m442.93 92.7v194.85h-364.48v-194.85c0-5.53 4.47-10 10-10h344.48c5.52 0 10 4.47 10 10z" fill="#b7c5ff"/><g><path d="m442.93 125.88v62.23h-131.47c-2.04 0-3.7-1.66-3.7-3.7v-27.42c0-17.18 13.93-31.11 31.11-31.11z" fill="#9fb0fe"/></g></g><g><g><path d="m210.19 221.29v197.13c0 6.01-4.88 10.88-10.89 10.88h-147.95c-6.01 0-10.89-4.87-10.89-10.88v-197.13c0-6.01 4.88-10.88 10.89-10.88h147.95c6.01 0 10.89 4.87 10.89 10.88z" fill="#fff"/><g><g><path d="m210.19 221.29v50.28c-6.41 3.67-13.85 5.77-21.77 5.77h-37.45c-3.58 0-6.47-2.9-6.47-6.47v-37.46c0-8.43 2.38-16.31 6.5-23h48.3c6.01 0 10.89 4.87 10.89 10.88z" fill="#d2deff"/></g></g><g fill="#6583fe"><path d="m183.19 220.387 2.403-9.981h-120.537l2.403 9.981c.58 2.411 2.737 4.11 5.217 4.11h105.299c2.478 0 4.635-1.699 5.215-4.11z"/><path d="m67.459 419.322-2.403 9.981h120.537l-2.403-9.981c-.58-2.411-2.737-4.11-5.217-4.11h-105.298c-2.48 0-4.636 1.699-5.216 4.11z"/></g></g></g><g><path d="m471.54 281.29v137.13c0 6.01-4.88 10.88-10.89 10.88h-72.95c-6.01 0-10.89-4.87-10.89-10.88v-137.13c0-6.01 4.88-10.88 10.89-10.88h72.95c6.01 0 10.89 4.87 10.89 10.88z" fill="#fff"/><g><g><path d="m415.92 310.59v37.45c0 3.58-2.89 6.47-6.47 6.47h-32.64v-73.22c0-6.01 4.88-10.88 10.89-10.88h2.08c4.98 2.21 9.48 5.32 13.28 9.12 7.94 7.95 12.86 18.93 12.86 31.06z" fill="#d2deff"/></g></g><path d="m444.542 280.387 2.402-9.981h-45.537l2.403 9.981c.58 2.411 2.737 4.11 5.217 4.11h30.299c2.479 0 4.635-1.7 5.216-4.11z" fill="#6583fe"/></g></g><g><g><g><path d="m150.968 260.551h37.455c24.259 0 43.925-19.666 43.925-43.925 0-24.259-19.666-43.925-43.925-43.925-24.259 0-43.925 19.666-43.925 43.925v37.455c0 3.574 2.897 6.47 6.47 6.47z" fill="#02ffb3"/></g></g><path d="m177.332 238.234c-1.631 0-3.262-.622-4.507-1.867l-4.249-4.249c-2.489-2.489-2.489-6.525 0-9.014l26.219-26.219c2.49-2.488 6.524-2.488 9.014 0l4.462 4.462c2.489 2.489 2.489 6.525 0 9.014-2.474 2.474-6.476 2.49-8.969.045l-17.212 17.213c2.236 2.503 2.152 6.346-.25 8.749-1.246 1.243-2.876 1.866-4.508 1.866z" fill="#fff"/></g><g><g><g><path d="m409.455 337.729h-37.455c-24.259 0-43.925-19.666-43.925-43.925 0-24.259 19.666-43.925 43.925-43.925 24.259 0 43.925 19.666 43.925 43.925v37.455c0 3.573-2.897 6.47-6.47 6.47z" fill="#02ffb3"/></g></g><path d="m360.909 315.412c-1.631 0-3.262-.622-4.507-1.867l-4.249-4.249c-2.489-2.489-2.489-6.525 0-9.014l26.219-26.219c2.49-2.488 6.524-2.488 9.014 0l4.462 4.462c2.489 2.489 2.489 6.525 0 9.014-2.474 2.474-6.476 2.49-8.969.045l-17.212 17.213c2.236 2.503 2.152 6.346-.25 8.749-1.246 1.243-2.877 1.866-4.508 1.866z" fill="#fff"/></g><g><g><path d="m311.456 171.322h132.364c17.183 0 31.113-13.93 31.113-31.113 0-17.183-13.93-31.113-31.113-31.113h-104.946c-17.183 0-31.113 13.93-31.113 31.113v27.418c0 2.041 1.654 3.695 3.695 3.695z" fill="#ff7eb8"/></g><g><g><path d="m372.901 135.88h73.52c2.762 0 5-2.239 5-5s-2.238-5-5-5h-73.52c-2.762 0-5 2.239-5 5s2.239 5 5 5z" fill="#fff"/></g><g><path d="m342.901 154.537h103.519c2.762 0 5-2.239 5-5s-2.238-5-5-5h-103.519c-2.762 0-5 2.239-5 5s2.239 5 5 5z" fill="#fff"/></g></g></g><path d="m247.827 478.321c-1.28 0-2.559-.488-3.535-1.464l-11.311-11.31c-.938-.938-1.465-2.21-1.465-3.536s.527-2.598 1.464-3.535l11.311-11.311c.938-.938 2.209-1.465 3.536-1.465s2.598.526 3.536 1.465l11.31 11.311c.938.938 1.464 2.209 1.464 3.535s-.527 2.598-1.464 3.535l-11.31 11.31c-.977.977-2.256 1.465-3.536 1.465zm-4.239-16.309 4.239 4.238 4.239-4.238-4.239-4.239z" fill="#01eca5"/><path d="m106.117 59.45c-2.761 0-5-2.238-5-5 0-3.309-2.691-6-6-6-2.761 0-5-2.238-5-5s2.239-5 5-5c3.309 0 6-2.691 6-6 0-2.762 2.239-5 5-5s5 2.238 5 5c0 3.309 2.691 6 6 6 2.761 0 5 2.238 5 5s-2.239 5-5 5c-3.309 0-6 2.691-6 6 0 2.762-2.239 5-5 5z" fill="#6583fe"/><g fill="#ff7eb8"><path d="m154.667 59.45c-2.761 0-5-2.238-5-5 0-3.309-2.691-6-6-6-2.761 0-5-2.238-5-5s2.239-5 5-5c3.309 0 6-2.691 6-6 0-2.762 2.239-5 5-5s5 2.238 5 5c0 3.309 2.691 6 6 6 2.761 0 5 2.238 5 5s-2.239 5-5 5c-3.309 0-6 2.691-6 6 0 2.762-2.239 5-5 5z"/><path d="m323.71 469.3c-2.761 0-5-2.238-5-5 0-3.309-2.691-6-6-6-2.761 0-5-2.238-5-5s2.239-5 5-5c3.309 0 6-2.691 6-6 0-2.762 2.239-5 5-5s5 2.238 5 5c0 3.309 2.691 6 6 6 2.761 0 5 2.238 5 5s-2.239 5-5 5c-3.309 0-6 2.691-6 6 0 2.762-2.238 5-5 5z"/></g></g></g><path d="m215.187 418.418v-7.009h93 38.833c2.761 0 5-2.238 5-5s-2.239-5-5-5h-33.833v-74.648h22.687c8.914 9.763 21.721 15.91 35.939 15.964v75.692c0 8.76 7.126 15.886 15.885 15.886h72.955c8.759 0 15.885-7.126 15.885-15.886v-137.126c0-8.76-7.126-15.886-15.885-15.886h-12.727v-57.405c0-2.762-2.239-5-5-5s-5 2.238-5 5v57.405h-26.125c-8.883-12.413-23.408-20.526-39.801-20.526-26.978 0-48.925 21.947-48.925 48.925 0 8.293 2.081 16.106 5.737 22.957h-113.625v-59.209c13.333-8.749 22.162-23.822 22.162-40.926 0-26.978-21.948-48.925-48.925-48.925s-48.925 21.947-48.925 48.925v37.455c0 6.325 5.146 11.471 11.47 11.471h37.455c5.886 0 11.532-1.046 16.764-2.96v59.741 84.076 12.009c0 3.245-2.64 5.885-5.885 5.885h-147.956c-3.245 0-5.885-2.64-5.885-5.885v-197.127c0-3.245 2.64-5.886 5.885-5.886h59.492c2.761 0 5-2.238 5-5s-2.239-5-5-5h-27.392v-112.708c0-2.757 2.243-5 5-5h344.479c2.757 0 5 2.243 5 5v11.398h-99.052c-19.913 0-36.113 16.2-36.113 36.113v27.418c0 4.795 3.901 8.695 8.695 8.695h132.364c19.913 0 36.113-16.2 36.113-36.113 0-18.524-14.021-33.827-32.007-35.873v-11.638c0-8.271-6.729-15-15-15h-344.479c-8.271 0-15 6.729-15 15v112.708h-22.1c-8.759 0-15.885 7.126-15.885 15.886v197.127c0 8.759 7.126 15.885 15.885 15.885h147.954c8.76 0 15.886-7.126 15.886-15.885zm245.466-143.013c3.245 0 5.885 2.641 5.885 5.886v137.126c0 3.245-2.64 5.886-5.885 5.886h-72.955c-3.245 0-5.885-2.641-5.885-5.886v-75.688h27.642c6.324 0 11.47-5.146 11.47-11.471v-37.455c0-6.506-1.287-12.715-3.603-18.398zm-88.653-20.526c21.463 0 38.925 17.462 38.925 38.925v37.455c0 .811-.659 1.471-1.47 1.471h-37.455c-21.463 0-38.925-17.462-38.925-38.926 0-21.463 17.462-38.925 38.925-38.925zm-221.032.673c-.811 0-1.47-.66-1.47-1.471v-37.455c0-21.463 17.461-38.925 38.925-38.925s38.925 17.462 38.925 38.925c0 14.151-7.593 26.56-18.916 33.375-.497.187-.949.454-1.357.781-5.542 3.039-11.898 4.771-18.652 4.771h-37.455zm152.219 145.857h-88v-74.648h16.33v20.089c0 15.257 12.413 27.67 27.67 27.67s27.67-12.413 27.67-27.67v-20.089h16.33zm-61.67-74.648h35.34v20.089c0 9.743-7.927 17.67-17.67 17.67s-17.67-7.927-17.67-17.67zm228.417-186.552c0 14.398-11.714 26.113-26.113 26.113h-131.06v-26.113c0-14.398 11.714-26.113 26.113-26.113h104.946c14.399 0 26.114 11.715 26.114 26.113z" fill="#2626bc"/></g></svg>