<svg id="Capa_1" enable-background="new 0 0 512 512" height="512" viewBox="0 0 512 512" width="512" xmlns="http://www.w3.org/2000/svg"><g><path d="m449.104 478.389-75.358-16.746c-6.863-1.525-11.746-7.613-11.746-14.643v-94.819h30v82.786l63.613 14.136z" fill="#a6d3e7"/><path d="m62.896 478.389-6.508-29.286 63.612-14.136v-82.786h30v94.819c0 7.03-4.883 13.118-11.746 14.643z" fill="#c8eafc"/><path d="m150 159.819h-30v-82.786l-63.613-14.137 6.508-29.286 75.358 16.747c6.864 1.525 11.747 7.613 11.747 14.643z" fill="#c8eafc"/><path d="m256 421c-32.54 0-66.19-8.4-100.017-24.966-26.558-13.007-53.303-31.067-79.492-53.68-44.273-38.228-71.546-76.028-72.686-77.618-3.741-5.223-3.741-12.248 0-17.471 1.14-1.59 28.412-39.391 72.686-77.618 26.189-22.613 52.935-40.673 79.492-53.68 33.827-16.567 67.477-24.967 100.017-24.967s66.19 8.4 100.017 24.966c26.558 13.007 53.303 31.067 79.492 53.68 44.273 38.228 71.546 76.028 72.686 77.618 3.741 5.223 3.741 12.248 0 17.471-1.14 1.59-28.412 39.391-72.686 77.618-26.189 22.613-52.935 40.673-79.492 53.68-33.827 16.567-67.477 24.967-100.017 24.967z" fill="#e6f5ff"/><path d="m356.017 396.034c26.558-13.007 53.303-31.067 79.492-53.68 44.273-38.228 71.546-76.028 72.686-77.618 3.741-5.223 3.741-12.248 0-17.471-1.14-1.59-28.412-39.391-72.686-77.618-26.189-22.613-52.935-40.673-79.492-53.68-33.827-16.567-67.477-24.967-100.017-24.967v330c32.54 0 66.19-8.4 100.017-24.966z" fill="#c8eafc"/><path d="m256 361c-57.897 0-105-47.103-105-105s47.103-105 105-105 105 47.103 105 105-47.103 105-105 105z" fill="#98f9ff"/><path d="m361 256c0-57.897-47.103-105-105-105v210c57.897 0 105-47.103 105-105z" fill="#5ad0f4"/><path d="m256 301c-24.813 0-45-20.187-45-45s20.187-45 45-45 45 20.187 45 45-20.187 45-45 45z" fill="#415e97"/><g fill="#283c6d"><path d="m301 256c0-24.813-20.187-45-45-45v90c24.813 0 45-20.187 45-45z"/><path d="m497 30h-140c-8.284 0-15-6.716-15-15s6.716-15 15-15h140c8.284 0 15 6.716 15 15s-6.716 15-15 15z"/><path d="m497 90h-120c-8.284 0-15-6.716-15-15s6.716-15 15-15h120c8.284 0 15 6.716 15 15s-6.716 15-15 15z"/></g><path d="m467 512c-24.813 0-45-20.187-45-45s20.187-45 45-45 45 20.187 45 45-20.187 45-45 45z" fill="#c30047"/><path d="m45 512c-24.813 0-45-20.187-45-45s20.187-45 45-45 45 20.187 45 45-20.187 45-45 45z" fill="#ff405c"/><path d="m45 90c-24.813 0-45-20.187-45-45s20.187-45 45-45 45 20.187 45 45-20.187 45-45 45z" fill="#ff405c"/></g></svg>