<svg id="Layer_5" enable-background="new 0 0 64 64" height="512" viewBox="0 0 64 64" width="512" xmlns="http://www.w3.org/2000/svg"><g><g><g><path d="m52.72 49.29 9.28-7.29v-26h-60v46h50c2.21 0 4-1.79 4-4 0-1.1-.45-2.1-1.17-2.83-.73-.72-1.73-1.17-2.83-1.17s-2.1.45-2.83 1.17c-.43.43-.76.96-.95 1.55-.15.75-.22 1.51-.22 2.28v-1c0-.45.07-.88.22-1.28.54-2.91 2.13-5.57 4.5-7.43z" fill="#e6e9ed"/></g><g><path d="m6 20h10v8h-10z" fill="#fcd770"/></g><g><path d="m6 54h4v4h-4z" fill="#ff826e"/></g><g><path d="m62 42-6 16c0-1.1-.45-2.1-1.17-2.83-.73-.72-1.73-1.17-2.83-1.17s-2.1.45-2.83 1.17c-.43.43-.76.96-.95 1.55.54-2.91 2.13-5.57 4.5-7.43z" fill="#5cd6b3"/></g><g><path d="m58 26v2c0 1.1-.9 2-2 2h-4-8-4c-1.1 0-2-.9-2-2v-2z" fill="#d3a06c"/></g><g><path d="m54 20c2.21 0 4 1.79 4 4v2h-20v-2c0-2.21 1.79-4 4-4z" fill="#cf9e76"/></g><g><path d="m58 4v2c0 2.21-1.79 4-4 4h-12c-2.21 0-4-1.79-4-4v-2c0-1.1.9-2 2-2h16c1.1 0 2 .9 2 2z" fill="#cf9e76"/></g><g><path d="m54 16v4h-12v-4-6h12z" fill="#dfb28b"/></g><g><path d="m52 30-2.79 13.02c-.12.57-.63.98-1.21.98s-1.09-.41-1.21-.98l-2.79-13.02z" fill="#dfb28b"/></g><g><path d="m38 54h4v4h-4z" fill="#ff826e"/></g><g><path d="m30 54h4v4h-4z" fill="#ff826e"/></g><g><path d="m22 54h4v4h-4z" fill="#ff826e"/></g><g><path d="m14 54h4v4h-4z" fill="#ff826e"/></g></g><g><path d="m63 15h-8v-4.101c2.279-.465 4-2.484 4-4.899v-2c0-1.654-1.346-3-3-3h-16c-1.654 0-3 1.346-3 3v2c0 2.414 1.721 4.434 4 4.899v4.101h-40v48h51c2.672 0 4.842-2.112 4.975-4.751l6.025-16.068zm-11 38c-.494 0-.963.094-1.414.229.706-1.191 1.624-2.265 2.75-3.15l6.474-5.086-3.779 10.076c-.91-1.248-2.372-2.069-4.031-2.069zm-12-24c-.552 0-1-.449-1-1v-1h18v1c0 .551-.448 1-1 1zm10.763 2-2.531 11.811c-.047.219-.418.217-.465.001l-2.53-11.812zm6.237-6h-18v-1c0-1.654 1.346-3 3-3h12c1.654 0 3 1.346 3 3zm-4-14v8h-10v-8zm-14-5v-2c0-.551.448-1 1-1h16c.552 0 1 .449 1 1v2c0 1.654-1.346 3-3 3h-12c-1.654 0-3-1.346-3-3zm13 55h-49v-44h38v2.101c-2.279.465-4 2.484-4 4.899v4c0 1.654 1.346 3 3 3h3.192l2.621 12.233c.22 1.024 1.14 1.767 2.187 1.767s1.967-.743 2.188-1.769l2.62-12.231h3.192c1.654 0 3-1.346 3-3v-4c0-2.414-1.721-4.434-4-4.899v-2.101h6v24.514l-8.9 6.993c-2.579 2.026-4.263 4.866-4.852 8.017-.147.469-.248.959-.248 1.476v1h2c0-.701.08-1.387.203-2.061.431-1.13 1.518-1.939 2.797-1.939 1.654 0 3 1.346 3 3s-1.346 3-3 3z"/><path d="m17 19h-12v10h12zm-2 8h-8v-6h8z"/><path d="m5 31h30v2h-30z"/><path d="m39 35h2v2h-2z"/><path d="m5 35h32v2h-32z"/><path d="m5 39h36v2h-36z"/><path d="m5 43h36v2h-36z"/><path d="m5 59h6v-6h-6zm2-4h2v2h-2z"/><path d="m13 59h6v-6h-6zm2-4h2v2h-2z"/><path d="m21 59h6v-6h-6zm2-4h2v2h-2z"/><path d="m29 59h6v-6h-6zm2-4h2v2h-2z"/><path d="m37 59h6v-6h-6zm2-4h2v2h-2z"/><path d="m19 27h16v2h-16z"/><path d="m19 23h16v2h-16z"/><path d="m19 19h16v2h-16z"/><path d="m5 47h2v2h-2z"/><path d="m9 47h32v2h-32z"/></g></g></svg>