<svg height="512pt" viewBox="0 -9 512 512" width="512pt" xmlns="http://www.w3.org/2000/svg"><path d="m32 326.625h-32v-128c0-79.410156 64.609375-144 144-144h128c8.816406 0 16-7.167969 16-16v-38.625l135.695312 135.695312-135.695312 113.089844v-34.160156c0-8.832031-7.183594-16-16-16h-112c-70.574219 0-128 57.421875-128 128zm0 0" fill="#81c784"/><path d="m224 493.246094-135.695312-135.695313 135.695312-113.085937v34.160156c0 8.832031 7.183594 16 16 16h112c70.574219 0 128-57.425781 128-128h32v128c0 79.40625-64.609375 144-144 144h-128c-8.816406 0-16 7.167969-16 16zm0 0" fill="#fdd835"/><path d="m0 358.625h32v32h-32zm0 0" fill="#43a047"/><path d="m0 422.625h32v32h-32zm0 0" fill="#43a047"/><g fill="#fbc02d"><path d="m480 38.625h32v32h-32zm0 0"/><path d="m480 102.625h32v32h-32zm0 0"/></g></svg>