<?xml version="1.0" encoding="utf-8"?>
<!-- Generator: Adobe Illustrator 23.0.0, SVG Export Plug-In . SVG Version: 6.00 Build 0)  -->
<svg version="1.1" id="Layer_1" xmlns="http://www.w3.org/2000/svg" xmlns:xlink="http://www.w3.org/1999/xlink" x="0px" y="0px"
	 viewBox="0 0 149.1 82" style="enable-background:new 0 0 149.1 82;" xml:space="preserve">
<style type="text/css">
	.st0{fill:#005A9C;}
	.st1{fill:#221B0A;}
</style>
<title>SVG logo combined with the W3C logo, set horizontally</title>
<desc>
	The logo combines three entities displayed horizontally: the W3C logo with the text &apos;W3C&apos;; the drawing of a flower or star shape with eight arms; and the text &apos;SVG&apos;. These three entities are set horizontally.
	</desc>
<g image-rendering="optimizeQuality" text-rendering="geometricPrecision" shape-rendering="geometricPrecision">
	<g>
		<g id="w3c-logo">
			<g>
				<title>W3</title>
				<path class="st0" d="M40.3,10.1l12.1,41l12.1-41h8.7l-20,67.4h-0.8L39.9,35.7L27.4,77.5h-0.8l-20-67.4h8.7l12.1,41l8.2-27.6
					l-4-13.4L40.3,10.1L40.3,10.1z"/>
				<path class="st0" d="M98,55.9c0,6.1-1.6,11.2-4.9,15.4c-3.2,4.2-7.4,6.2-12.6,6.2c-3.9,0-7.3-1.2-10.1-3.7
					c-2.9-2.5-5-5.8-6.4-10l6.8-2.8c1,2.6,2.3,4.6,4,6c1.6,1.5,3.6,2.2,5.8,2.2c2.3,0,4.3-1.3,5.9-3.9c1.6-2.6,2.4-5.7,2.4-9.4
					c0-4-0.9-7.2-2.6-9.4c-2-2.6-5.1-3.9-9.4-3.9h-3.3v-4l11.6-20.1H71.1l-3.9,6.7h-2.5v-15h32.4v4.1L84.9,35.4
					c4.3,1.4,7.6,3.9,9.8,7.6C96.9,46.6,98,50.9,98,55.9z"/>
			</g>
			<g>
				<title>C</title>
				<path class="st1" d="M131.9,9.7l1.4,8.6l-5,9.6c0,0-1.9-4.1-5.1-6.3c-2.7-1.9-4.4-2.3-7.2-1.7c-3.5,0.7-7.5,4.9-9.3,10.1
					c-2.1,6.2-2.1,9.2-2.2,12c-0.1,4.4,0.6,7,0.6,7s-3-5.6-3-13.9c0-5.9,0.9-11.2,3.7-16.5c2.4-4.6,5.9-7.4,9.1-7.7
					c3.3-0.3,5.8,1.2,7.8,2.9c2.1,1.8,4.2,5.7,4.2,5.7L131.9,9.7z"/>
				<path class="st1" d="M132.5,58.4c0,0-2.2,4-3.6,5.5c-1.4,1.5-3.8,4.2-6.9,5.6c-3,1.3-4.6,1.6-7.7,1.3c-3-0.3-5.8-2-6.8-2.8
					c-1-0.7-3.5-2.9-4.9-4.9c-1.4-2-3.6-6-3.6-6s1.2,4,2,5.7c0.4,1,1.8,4,3.7,6.6c1.8,2.4,5.3,6.6,10.7,7.5c5.3,0.9,9-1.4,9.9-2
					c0.9-0.6,2.8-2.2,4-3.5c1.3-1.4,2.5-3.1,3.1-4.1c0.5-0.8,1.3-2.3,1.3-2.3L132.5,58.4z"/>
			</g>
			<g>
				<title>Registered Trademark</title>
				<path class="st1" d="M139.2,4.5c2.5,0,4.5,2,4.5,4.5c0,2.5-2,4.5-4.5,4.5c-2.5,0-4.5-2-4.5-4.5C134.7,6.5,136.7,4.5,139.2,4.5
					C139.2,4.5,139.2,4.5,139.2,4.5z M139.2,5.4c-1.9,0-3.4,1.6-3.4,3.6c0,2,1.5,3.6,3.4,3.6c1.9,0,3.5-1.6,3.5-3.6
					C142.7,7,141.1,5.4,139.2,5.4C139.2,5.4,139.2,5.4,139.2,5.4z M138.4,11.7h-1.1v-5c0.4-0.1,0.8-0.1,1.6-0.1
					c0.9,0,1.4,0.1,1.7,0.4c0.3,0.2,0.4,0.6,0.4,1.1c0,0.6-0.4,1-1,1.2v0c0.4,0.1,0.7,0.5,0.8,1.2c0.1,0.8,0.2,1.1,0.3,1.2h-1.1
					c-0.1-0.2-0.2-0.6-0.3-1.3c-0.1-0.5-0.4-0.8-0.9-0.8h-0.5L138.4,11.7L138.4,11.7z M138.4,8.8h0.5c0.6,0,1.1-0.2,1.1-0.7
					c0-0.4-0.3-0.7-1-0.7c-0.3,0-0.4,0-0.6,0V8.8z"/>
			</g>
		</g>
	</g>
</g>
</svg>
