<svg xmlns="http://www.w3.org/2000/svg" xmlns:xlink="http://www.w3.org/1999/xlink" preserveAspectRatio="xMidYMid" width="158" height="90.469" viewBox="0 0 158 90.469">
  <defs>
    <style>
      .cls-1 {
        fill: #da1d25;
      }

      .cls-1, .cls-2 {
        fill-rule: evenodd;
      }

      .cls-2 {
        fill: #fff;
      }
    </style>
  </defs>
  <g>
    <path d="M129.996,51.962 C129.998,51.953 130.000,51.943 130.002,51.934 C130.381,50.389 131.687,49.379 132.919,49.684 C133.870,49.919 134.492,50.870 134.555,52.001 L129.996,51.962 ZM126.268,51.931 L113.618,51.824 C115.030,46.051 116.361,40.608 117.302,36.762 C118.059,33.668 121.184,31.789 124.281,32.554 C124.527,32.615 124.767,32.674 125.010,32.734 C128.109,33.500 130.013,36.627 129.253,39.721 C128.470,42.925 127.415,47.243 126.268,51.931 ZM109.892,51.792 L62.865,51.394 C51.213,48.514 40.419,45.846 38.261,45.313 C37.774,47.302 37.294,49.263 36.827,51.173 L21.072,51.039 C24.645,36.423 29.279,17.473 31.906,6.734 C33.040,2.096 37.295,-0.841 41.406,0.175 C45.519,1.191 47.932,5.772 46.797,10.411 C45.448,15.927 43.568,23.614 41.575,31.764 C45.867,32.825 84.277,42.317 95.731,45.148 C97.725,36.999 99.605,29.312 100.953,23.798 C102.089,19.156 106.343,16.223 110.454,17.239 C114.564,18.255 116.975,22.838 115.840,27.477 C114.328,33.657 112.150,42.560 109.892,51.792 ZM17.747,51.011 L5.107,50.904 C5.112,50.882 5.111,50.861 5.116,50.839 C7.498,41.102 12.376,21.157 14.758,11.419 C15.515,8.325 18.638,6.445 21.737,7.211 C21.980,7.271 22.226,7.332 22.469,7.392 C25.568,8.158 27.467,11.284 26.708,14.377 C24.533,23.267 20.283,40.642 17.747,51.011 ZM5.184,38.825 C4.805,40.371 3.502,41.379 2.270,41.074 C1.039,40.765 0.346,39.264 0.724,37.718 C1.771,33.428 3.762,25.289 4.812,20.995 C5.190,19.449 6.499,18.440 7.732,18.745 C8.964,19.049 9.656,20.552 9.278,22.096 C8.225,26.389 6.232,34.539 5.184,38.825 Z" class="cls-1"/>
    <path d="M147.327,71.112 C147.533,71.301 147.928,71.395 148.512,71.395 L152.582,71.395 C156.188,71.395 157.991,73.079 157.991,76.446 L157.991,84.948 C157.991,88.349 156.118,90.050 152.376,90.050 L146.812,90.050 C143.069,90.050 141.197,88.349 141.197,84.948 L141.197,80.465 L147.121,80.465 L147.121,84.124 C147.121,84.674 147.224,85.043 147.430,85.232 C147.636,85.421 148.031,85.515 148.615,85.515 L150.573,85.515 C151.122,85.515 151.500,85.421 151.706,85.232 C151.912,85.043 152.015,84.674 152.015,84.124 L152.015,77.167 C152.015,76.618 151.912,76.248 151.706,76.059 C151.500,75.871 151.122,75.776 150.573,75.776 L146.400,75.776 C142.862,75.776 141.094,74.058 141.094,70.622 L141.094,62.635 C141.094,59.234 142.949,57.533 146.658,57.533 L152.324,57.533 C156.033,57.533 157.888,59.234 157.888,62.635 L157.888,67.170 L151.912,67.170 L151.912,63.460 C151.912,62.910 151.809,62.541 151.603,62.352 C151.397,62.163 151.019,62.068 150.470,62.068 L148.512,62.068 C147.928,62.068 147.533,62.163 147.327,62.352 C147.121,62.541 147.018,62.910 147.018,63.460 L147.018,70.004 C147.018,70.554 147.121,70.924 147.327,71.112 ZM126.671,90.050 L121.107,90.050 C117.364,90.050 115.492,88.349 115.492,84.948 L115.492,80.465 L121.416,80.465 L121.416,84.124 C121.416,84.674 121.519,85.043 121.725,85.232 C121.931,85.421 122.326,85.515 122.910,85.515 L124.868,85.515 C125.417,85.515 125.795,85.421 126.001,85.232 C126.207,85.043 126.310,84.674 126.310,84.124 L126.310,77.167 C126.310,76.618 126.207,76.248 126.001,76.059 C125.795,75.871 125.417,75.776 124.868,75.776 L120.695,75.776 C117.158,75.776 115.389,74.058 115.389,70.622 L115.389,62.635 C115.389,59.234 117.244,57.533 120.953,57.533 L126.619,57.533 C130.328,57.533 132.183,59.234 132.183,62.635 L132.183,67.170 L126.207,67.170 L126.207,63.460 C126.207,62.910 126.104,62.541 125.898,62.352 C125.692,62.163 125.314,62.068 124.765,62.068 L122.807,62.068 C122.223,62.068 121.828,62.163 121.622,62.352 C121.416,62.541 121.313,62.910 121.313,63.460 L121.313,70.004 C121.313,70.554 121.416,70.924 121.622,71.112 C121.828,71.301 122.223,71.395 122.807,71.395 L126.877,71.395 C130.483,71.395 132.286,73.079 132.286,76.446 L132.286,84.948 C132.286,88.349 130.414,90.050 126.671,90.050 ZM91.590,57.533 L107.044,57.533 L107.044,62.068 L97.566,62.068 L97.566,71.086 L105.550,71.086 L105.550,75.673 L97.566,75.673 L97.566,85.515 L107.456,85.515 L107.456,90.050 L91.590,90.050 L91.590,57.533 ZM68.924,68.510 L68.924,90.050 L63.463,90.050 L63.463,57.533 L69.181,57.533 L76.033,78.764 L76.033,57.533 L81.442,57.533 L81.442,90.050 L75.878,90.050 L68.924,68.510 ZM49.864,90.050 L43.940,90.050 L43.940,62.068 L38.273,62.068 L38.273,57.533 L55.582,57.533 L55.582,62.068 L49.864,62.068 L49.864,90.050 ZM24.159,57.533 L30.083,57.533 L30.083,90.050 L24.159,90.050 L24.159,57.533 ZM5.975,71.962 L13.960,71.962 L13.960,76.291 L5.975,76.291 L5.975,90.050 L-0.001,90.050 L-0.001,57.533 L15.763,57.533 L15.763,62.068 L5.975,62.068 L5.975,71.962 Z" class="cls-2"/>
  </g>
</svg>
