<svg xmlns="http://www.w3.org/2000/svg" xmlns:xlink="http://www.w3.org/1999/xlink" preserveAspectRatio="xMidYMid" width="127.375" height="72.969" viewBox="0 0 127.375 72.969">
  <defs>
    <style>
      .cls-1 {
        fill: #fff;
        fill-rule: evenodd;
      }
    </style>
  </defs>
  <g>
    <path d="M104.813,41.913 C104.815,41.906 104.817,41.898 104.818,41.891 C105.123,40.644 106.176,39.830 107.170,40.076 C107.937,40.265 108.438,41.032 108.489,41.944 L104.813,41.913 ZM101.808,41.888 L91.608,41.801 C92.747,37.146 93.820,32.756 94.578,29.655 C95.189,27.160 97.709,25.644 100.206,26.261 C100.403,26.310 100.597,26.358 100.793,26.407 C103.292,27.024 104.827,29.546 104.214,32.041 C103.583,34.625 102.732,38.107 101.808,41.888 ZM88.605,41.776 L50.689,41.454 C41.295,39.132 32.592,36.981 30.852,36.551 C30.459,38.155 30.072,39.736 29.696,41.277 L16.993,41.169 C19.875,29.380 23.609,14.101 25.728,5.439 C26.642,1.699 30.073,-0.670 33.387,0.149 C36.704,0.969 38.649,4.663 37.734,8.404 C36.647,12.852 35.131,19.052 33.523,25.624 C36.984,26.479 67.952,34.135 77.187,36.418 C78.794,29.846 80.310,23.646 81.398,19.200 C82.313,15.456 85.743,13.091 89.057,13.911 C92.371,14.730 94.315,18.425 93.400,22.167 C92.181,27.151 90.425,34.331 88.605,41.776 ZM14.312,41.146 L4.121,41.060 C4.125,41.042 4.124,41.025 4.129,41.007 C6.049,33.155 9.982,17.070 11.903,9.217 C12.513,6.722 15.031,5.206 17.530,5.823 C17.726,5.872 17.924,5.921 18.119,5.969 C20.618,6.587 22.149,9.108 21.537,11.603 C19.784,18.772 16.357,32.784 14.312,41.146 ZM4.183,31.319 C3.878,32.565 2.827,33.378 1.834,33.132 C0.842,32.883 0.283,31.672 0.588,30.426 C1.432,26.966 3.037,20.402 3.884,16.939 C4.189,15.693 5.244,14.879 6.237,15.125 C7.231,15.370 7.789,16.583 7.485,17.827 C6.636,21.290 5.028,27.862 4.183,31.319 Z" class="cls-1"/>
    <path d="M118.787,57.356 C118.953,57.509 119.271,57.585 119.742,57.585 L123.023,57.585 C125.930,57.585 127.384,58.943 127.384,61.658 L127.384,68.515 C127.384,71.258 125.874,72.629 122.857,72.629 L118.371,72.629 C115.353,72.629 113.844,71.258 113.844,68.515 L113.844,64.899 L118.620,64.899 L118.620,67.850 C118.620,68.293 118.703,68.591 118.870,68.743 C119.036,68.896 119.354,68.972 119.825,68.972 L121.403,68.972 C121.846,68.972 122.151,68.896 122.317,68.743 C122.483,68.591 122.566,68.293 122.566,67.850 L122.566,62.239 C122.566,61.797 122.483,61.499 122.317,61.346 C122.151,61.194 121.846,61.117 121.403,61.117 L118.039,61.117 C115.187,61.117 113.761,59.732 113.761,56.962 L113.761,50.520 C113.761,47.777 115.256,46.406 118.247,46.406 L122.815,46.406 C125.806,46.406 127.301,47.777 127.301,50.520 L127.301,54.177 L122.483,54.177 L122.483,51.185 C122.483,50.742 122.400,50.444 122.234,50.292 C122.068,50.140 121.763,50.063 121.320,50.063 L119.742,50.063 C119.271,50.063 118.953,50.140 118.787,50.292 C118.620,50.444 118.537,50.742 118.537,51.185 L118.537,56.463 C118.537,56.906 118.620,57.205 118.787,57.356 ZM102.132,72.629 L97.647,72.629 C94.628,72.629 93.120,71.258 93.120,68.515 L93.120,64.899 L97.896,64.899 L97.896,67.850 C97.896,68.293 97.979,68.591 98.145,68.743 C98.311,68.896 98.629,68.972 99.100,68.972 L100.679,68.972 C101.121,68.972 101.426,68.896 101.592,68.743 C101.758,68.591 101.841,68.293 101.841,67.850 L101.841,62.239 C101.841,61.797 101.758,61.499 101.592,61.346 C101.426,61.194 101.121,61.117 100.679,61.117 L97.314,61.117 C94.462,61.117 93.036,59.732 93.036,56.962 L93.036,50.520 C93.036,47.777 94.532,46.406 97.522,46.406 L102.091,46.406 C105.081,46.406 106.576,47.777 106.576,50.520 L106.576,54.177 L101.758,54.177 L101.758,51.185 C101.758,50.742 101.675,50.444 101.509,50.292 C101.343,50.140 101.038,50.063 100.595,50.063 L99.017,50.063 C98.546,50.063 98.228,50.140 98.062,50.292 C97.896,50.444 97.813,50.742 97.813,51.185 L97.813,56.463 C97.813,56.906 97.896,57.205 98.062,57.356 C98.228,57.509 98.546,57.585 99.017,57.585 L102.298,57.585 C105.206,57.585 106.659,58.943 106.659,61.658 L106.659,68.515 C106.659,71.258 105.150,72.629 102.132,72.629 ZM73.848,46.406 L86.308,46.406 L86.308,50.063 L78.666,50.063 L78.666,57.336 L85.104,57.336 L85.104,61.034 L78.666,61.034 L78.666,68.972 L86.641,68.972 L86.641,72.629 L73.848,72.629 L73.848,46.406 ZM55.574,55.258 L55.574,72.629 L51.171,72.629 L51.171,46.406 L55.781,46.406 L61.305,63.528 L61.305,46.406 L65.666,46.406 L65.666,72.629 L61.181,72.629 L55.574,55.258 ZM40.207,72.629 L35.430,72.629 L35.430,50.063 L30.862,50.063 L30.862,46.406 L44.817,46.406 L44.817,50.063 L40.207,50.063 L40.207,72.629 ZM19.482,46.406 L24.258,46.406 L24.258,72.629 L19.482,72.629 L19.482,46.406 ZM4.821,58.042 L11.259,58.042 L11.259,61.533 L4.821,61.533 L4.821,72.629 L0.003,72.629 L0.003,46.406 L12.712,46.406 L12.712,50.063 L4.821,50.063 L4.821,58.042 Z" class="cls-1"/>
  </g>
</svg>
